<svg width="20" height="20" viewBox="0 0 20 20" fill="none" xmlns="http://www.w3.org/2000/svg">
<mask id="mask0_2473_17856" style="mask-type:alpha" maskUnits="userSpaceOnUse" x="0" y="0" width="20" height="20">
<rect width="20" height="20" fill="#D9D9D9"/>
</mask>
<g mask="url(#mask0_2473_17856)">
<path d="M12.5002 16.6667C10.6391 16.6667 9.06266 16.0209 7.771 14.7292C6.47933 13.4375 5.8335 11.8612 5.8335 10C5.8335 8.13893 6.47933 6.56254 7.771 5.27087C9.06266 3.97921 10.6391 3.33337 12.5002 3.33337C14.3613 3.33337 15.9377 3.97921 17.2293 5.27087C18.521 6.56254 19.1668 8.13893 19.1668 10C19.1668 11.8612 18.521 13.4375 17.2293 14.7292C15.9377 16.0209 14.3613 16.6667 12.5002 16.6667ZM5.8335 16.4584C4.36127 16.0695 3.15989 15.2778 2.22933 14.0834C1.29877 12.8889 0.833496 11.5278 0.833496 10C0.833496 8.47226 1.29877 7.11115 2.22933 5.91671C3.15989 4.72226 4.36127 3.9306 5.8335 3.54171V5.29171C4.8335 5.63893 4.02794 6.2431 3.41683 7.10421C2.80572 7.96532 2.50016 8.9306 2.50016 10C2.50016 11.0695 2.80572 12.0348 3.41683 12.8959C4.02794 13.757 4.8335 14.3612 5.8335 14.7084V16.4584Z" fill="#000301"/>
</g>
</svg>
