<svg width="20" height="20" viewBox="0 0 20 20" fill="none" xmlns="http://www.w3.org/2000/svg">
<mask id="mask0_2473_17553" style="mask-type:alpha" maskUnits="userSpaceOnUse" x="0" y="0" width="20" height="20">
<rect width="20" height="20" fill="#D9D9D9"/>
</mask>
<g mask="url(#mask0_2473_17553)">
<path d="M3.16653 18.3334H2.49986V16.6667H3.16653C3.8332 16.6667 4.46861 16.5938 5.07278 16.4479C5.67695 16.3021 6.35403 16.0695 7.10403 15.75C7.63181 16.0139 8.09361 16.2327 8.48945 16.4063C8.88528 16.5799 9.38875 16.6667 9.99986 16.6667C10.611 16.6667 11.1144 16.5799 11.5103 16.4063C11.9061 16.2327 12.3679 16.0139 12.8957 15.75C13.6318 16.0695 14.3089 16.3021 14.9269 16.4479C15.545 16.5938 16.1874 16.6667 16.854 16.6667H17.4999V18.3334H16.854C16.1735 18.3334 15.5103 18.2709 14.8644 18.1459C14.2186 18.0209 13.5832 17.8334 12.9582 17.5834C12.4026 17.8472 11.8957 18.0347 11.4374 18.1459C10.979 18.257 10.4999 18.3125 9.99986 18.3125C9.49986 18.3125 9.02417 18.257 8.57278 18.1459C8.12139 18.0347 7.61792 17.8472 7.06236 17.5834C6.43736 17.8334 5.80195 18.0209 5.15611 18.1459C4.51028 18.2709 3.84708 18.3334 3.16653 18.3334ZM9.99986 15C9.16653 15 8.43736 14.7222 7.81236 14.1667L6.87486 13.3334C6.49986 13.7084 6.07972 14.0278 5.61445 14.2917C5.14917 14.5556 4.65264 14.7431 4.12486 14.8542L2.35403 9.16669C2.28458 8.93058 2.30542 8.7153 2.41653 8.52085C2.52764 8.32641 2.70125 8.19446 2.93736 8.12502L4.16653 7.79169V5.00002C4.16653 4.54169 4.32972 4.14933 4.65611 3.82294C4.9825 3.49655 5.37486 3.33335 5.8332 3.33335H7.91653V1.66669H12.0832V3.33335H14.1665C14.6249 3.33335 15.0172 3.49655 15.3436 3.82294C15.67 4.14933 15.8332 4.54169 15.8332 5.00002V7.79169L17.0624 8.12502C17.2985 8.19446 17.4721 8.32641 17.5832 8.52085C17.6943 8.7153 17.7151 8.93058 17.6457 9.16669L15.8749 14.8542C15.3471 14.7431 14.8506 14.5556 14.3853 14.2917C13.92 14.0278 13.4999 13.7084 13.1249 13.3334L12.1874 14.1667C11.5624 14.7222 10.8332 15 9.99986 15ZM5.8332 7.35419L9.99986 6.25002L14.1665 7.35419V5.00002H5.8332V7.35419Z" fill="#000301"/>
</g>
</svg>
