<svg width="20" height="20" viewBox="0 0 20 20" fill="none" xmlns="http://www.w3.org/2000/svg">
<mask id="mask0_2473_17546" style="mask-type:alpha" maskUnits="userSpaceOnUse" x="0" y="0" width="20" height="20">
<rect width="20" height="20" fill="#D9D9D9"/>
</mask>
<g mask="url(#mask0_2473_17546)">
<path d="M3.33317 11.6667V8.9375C3.05539 8.99306 2.77761 9.05208 2.49984 9.11458C2.22206 9.17708 1.94428 9.24306 1.6665 9.3125V7.58333C3.0415 7.25 4.41998 7.01389 5.80192 6.875C7.18387 6.73611 8.58317 6.66667 9.99984 6.66667C11.4165 6.66667 12.8158 6.73611 14.1978 6.875C15.5797 7.01389 16.9582 7.25 18.3332 7.58333V9.3125C18.0554 9.24306 17.7776 9.18056 17.4998 9.125L16.6665 8.95833V11.6667H14.9998V8.66667C14.1665 8.55556 13.3332 8.47222 12.4998 8.41667C11.6665 8.36111 10.8332 8.33333 9.99984 8.33333C9.1665 8.33333 8.33317 8.35764 7.49984 8.40625C6.6665 8.45486 5.83317 8.53472 4.99984 8.64583V11.6667H3.33317ZM7.06234 5.10417L7.49984 2.5H12.4998L12.9373 5.10417C12.4512 5.07639 11.9616 5.04861 11.4686 5.02083C10.9755 4.99306 10.4859 4.97917 9.99984 4.97917C9.51373 4.97917 9.02414 4.98958 8.53109 5.01042C8.03803 5.03125 7.54845 5.0625 7.06234 5.10417ZM4.99984 17.5L6.20817 10.1875C6.69428 10.1319 7.18734 10.0868 7.68734 10.0521C8.18734 10.0174 8.68039 9.98611 9.1665 9.95833V12.5H10.8332V9.95833C11.3193 9.98611 11.8123 10.0208 12.3123 10.0625C12.8123 10.1042 13.3054 10.1528 13.7915 10.2083L14.9998 17.5H10.8332V14.1667H9.1665V17.5H4.99984Z" fill="#000301"/>
</g>
</svg>
