<svg width="24" height="25" viewBox="0 0 24 25" fill="none" xmlns="http://www.w3.org/2000/svg">
<path d="M3 12.0375V14.5479C3 17.8477 3 19.4976 4.02513 20.5228C5.05025 21.5479 6.70017 21.5479 10 21.5479H14C17.2998 21.5479 18.9497 21.5479 19.9749 20.5228C21 19.4976 21 17.8477 21 14.5479V12.0375C21 10.3562 21 9.51558 20.6441 8.7879C20.2882 8.06022 19.6247 7.54413 18.2976 6.51196L16.2976 4.9564C14.2331 3.3507 13.2009 2.54785 12 2.54785C10.7991 2.54785 9.76689 3.3507 7.70242 4.9564L5.70241 6.51196C4.37533 7.54413 3.71179 8.06022 3.3559 8.7879C3 9.51558 3 10.3562 3 12.0375Z" stroke="#000301" stroke-width="1.5" stroke-linecap="round" stroke-linejoin="round"/>
<path d="M15.0003 17.0479C14.2008 17.6703 13.1505 18.0479 12.0003 18.0479C10.85 18.0479 9.79977 17.6703 9.00024 17.0479" stroke="#000301" stroke-width="1.5" stroke-linecap="round" stroke-linejoin="round"/>
</svg>
