<svg width="18" height="17" viewBox="0 0 18 17" fill="none" xmlns="http://www.w3.org/2000/svg">
<path d="M1.78863 3.60546L8.55256 0.223493C8.83409 0.0827291 9.16546 0.0827289 9.44699 0.223493L16.2109 3.60546C16.948 3.97398 16.948 5.02579 16.2109 5.39431L9.44699 8.77628C9.16546 8.91704 8.83409 8.91704 8.55256 8.77628L1.78863 5.39431C1.05158 5.02579 1.05158 3.97398 1.78863 3.60546Z" fill="#000301"/>
<path d="M1.47318 7.54643C1.88683 7.56806 2.20463 7.92092 2.183 8.33457C2.18023 8.38756 2.19254 8.43706 2.21461 8.47609C2.2347 8.5116 2.26735 8.54718 2.32603 8.57484L8.89357 11.6707C8.96108 11.7025 9.03926 11.7025 9.10677 11.6707L15.6743 8.57484C15.733 8.54718 15.7656 8.5116 15.7857 8.47609C15.8078 8.43706 15.8201 8.38756 15.8173 8.33457C15.7957 7.92092 16.1135 7.56806 16.5272 7.54643C16.9408 7.52481 17.2937 7.8426 17.3153 8.25625C17.3494 8.90951 17.0179 9.5998 16.3139 9.93165L9.74634 13.0275C9.27383 13.2502 8.72651 13.2502 8.254 13.0275L1.68645 9.93165C0.982448 9.5998 0.650892 8.90951 0.685045 8.25625C0.706672 7.8426 1.05953 7.52481 1.47318 7.54643Z" fill="#000301"/>
<path d="M2.18294 11.536C2.20266 11.1222 1.88324 10.7708 1.46949 10.7511C1.05575 10.7314 0.704357 11.0508 0.684636 11.4645C0.653615 12.1154 0.985495 12.8013 1.68645 13.1317L8.254 16.2276C8.72651 16.4503 9.27383 16.4503 9.74634 16.2276L16.3139 13.1317C17.0148 12.8013 17.3467 12.1154 17.3157 11.4645C17.296 11.0508 16.9446 10.7314 16.5308 10.7511C16.1171 10.7708 15.7977 11.1222 15.8174 11.536C15.8199 11.5887 15.8075 11.6379 15.7855 11.6767C15.7654 11.712 15.7328 11.7474 15.6743 11.7749L9.10677 14.8707C9.03926 14.9026 8.96108 14.9026 8.89357 14.8707L2.32603 11.7749C2.26757 11.7474 2.23497 11.712 2.21489 11.6767C2.19283 11.6379 2.18042 11.5887 2.18294 11.536Z" fill="#000301"/>
</svg>
