<svg width="20" height="20" viewBox="0 0 20 20" fill="none" xmlns="http://www.w3.org/2000/svg">
<mask id="mask0_2473_17507" style="mask-type:alpha" maskUnits="userSpaceOnUse" x="0" y="0" width="20" height="20">
<rect width="20" height="20" fill="#D9D9D9"/>
</mask>
<g mask="url(#mask0_2473_17507)">
<path d="M5.00016 16.6667C4.30572 16.6667 3.71544 16.4236 3.22933 15.9375C2.74322 15.4514 2.50016 14.8611 2.50016 14.1667H0.833496V5.00001C0.833496 4.54168 0.996691 4.14932 1.32308 3.82293C1.64947 3.49654 2.04183 3.33334 2.50016 3.33334H14.1668V6.66668H16.6668L19.1668 10V14.1667H17.5002C17.5002 14.8611 17.2571 15.4514 16.771 15.9375C16.2849 16.4236 15.6946 16.6667 15.0002 16.6667C14.3057 16.6667 13.7154 16.4236 13.2293 15.9375C12.7432 15.4514 12.5002 14.8611 12.5002 14.1667H7.50016C7.50016 14.8611 7.25711 15.4514 6.771 15.9375C6.28489 16.4236 5.69461 16.6667 5.00016 16.6667ZM5.00016 15C5.23627 15 5.43419 14.9201 5.59391 14.7604C5.75364 14.6007 5.8335 14.4028 5.8335 14.1667C5.8335 13.9306 5.75364 13.7326 5.59391 13.5729C5.43419 13.4132 5.23627 13.3333 5.00016 13.3333C4.76405 13.3333 4.56614 13.4132 4.40641 13.5729C4.24669 13.7326 4.16683 13.9306 4.16683 14.1667C4.16683 14.4028 4.24669 14.6007 4.40641 14.7604C4.56614 14.9201 4.76405 15 5.00016 15ZM15.0002 15C15.2363 15 15.4342 14.9201 15.5939 14.7604C15.7536 14.6007 15.8335 14.4028 15.8335 14.1667C15.8335 13.9306 15.7536 13.7326 15.5939 13.5729C15.4342 13.4132 15.2363 13.3333 15.0002 13.3333C14.7641 13.3333 14.5661 13.4132 14.4064 13.5729C14.2467 13.7326 14.1668 13.9306 14.1668 14.1667C14.1668 14.4028 14.2467 14.6007 14.4064 14.7604C14.5661 14.9201 14.7641 15 15.0002 15ZM14.1668 10.8333H17.7085L15.8335 8.33334H14.1668V10.8333Z" fill="#000301"/>
</g>
</svg>
