<svg width="24" height="25" viewBox="0 0 24 25" fill="none" xmlns="http://www.w3.org/2000/svg">
<path d="M5.25345 4.24369L4.02558 4.95598C3.03739 5.52922 2.54329 5.81585 2.27164 6.29268C2 6.7695 2 7.35018 2 8.51153V16.6762C2 18.2021 2 18.9651 2.34226 19.3897C2.57001 19.6723 2.88916 19.8622 3.242 19.9252C3.77226 20.0198 4.42148 19.6432 5.71987 18.89C6.60156 18.3785 7.45011 17.8473 8.50487 17.9914C8.98466 18.0569 9.44231 18.2845 10.3576 18.7396L14.1715 20.6359C14.9964 21.0461 15.004 21.0479 15.9214 21.0479H18C19.8856 21.0479 20.8284 21.0479 21.4142 20.4492C22 19.8505 22 18.8868 22 16.9596V10.2194C22 8.29208 22 7.32845 21.4142 6.72973C20.8284 6.13101 19.8856 6.13101 18 6.13101H15.9214C15.004 6.13101 14.9964 6.12924 14.1715 5.71905L10.8399 4.06248C9.44884 3.37082 8.75332 3.02499 8.01238 3.04902C7.27143 3.07306 6.59877 3.46327 5.25345 4.24369Z" stroke="#30B87A" stroke-width="1.5" stroke-linecap="round" stroke-linejoin="round"/>
<path d="M8 3.04785V17.5479" stroke="#30B87A" stroke-width="1.5" stroke-linecap="round" stroke-linejoin="round"/>
<path d="M15 6.54785V20.5479" stroke="#30B87A" stroke-width="1.5" stroke-linecap="round" stroke-linejoin="round"/>
</svg>
