<svg width="24" height="24" viewBox="0 0 24 24" fill="none" xmlns="http://www.w3.org/2000/svg">
<mask id="mask0_2473_13605" style="mask-type:alpha" maskUnits="userSpaceOnUse" x="0" y="0" width="24" height="24">
<rect width="24" height="24" fill="#D9D9D9"/>
</mask>
<g mask="url(#mask0_2473_13605)">
<path d="M4.35 20.7C4.01667 20.8333 3.70833 20.7958 3.425 20.5875C3.14167 20.3792 3 20.1 3 19.75V5.75C3 5.53333 3.0625 5.34167 3.1875 5.175C3.3125 5.00833 3.48333 4.88333 3.7 4.8L9 3L15 5.1L19.65 3.3C19.9833 3.16667 20.2917 3.20417 20.575 3.4125C20.8583 3.62083 21 3.9 21 4.25V12.675C20.4167 11.825 19.6875 11.1667 18.8125 10.7C17.9375 10.2333 17 10 16 10C15.6667 10 15.3333 10.0292 15 10.0875C14.6667 10.1458 14.3333 10.2333 14 10.35V6.85L10 5.45V18.525L4.35 20.7ZM20.6 22L18.05 19.45C17.75 19.6333 17.4292 19.7708 17.0875 19.8625C16.7458 19.9542 16.3833 20 16 20C14.9 20 13.9583 19.6083 13.175 18.825C12.3917 18.0417 12 17.1 12 16C12 14.9 12.3917 13.9583 13.175 13.175C13.9583 12.3917 14.9 12 16 12C17.1 12 18.0417 12.3917 18.825 13.175C19.6083 13.9583 20 14.9 20 16C20 16.3833 19.9542 16.7458 19.8625 17.0875C19.7708 17.4292 19.6333 17.75 19.45 18.05L22 20.6L20.6 22ZM16 18C16.5667 18 17.0375 17.8333 17.4125 17.5C17.7875 17.1667 17.9833 16.6667 18 16C18.0167 15.4333 17.8292 14.9583 17.4375 14.575C17.0458 14.1917 16.5667 14 16 14C15.4333 14 14.9583 14.1917 14.575 14.575C14.1917 14.9583 14 15.4333 14 16C14 16.5667 14.1917 17.0417 14.575 17.425C14.9583 17.8083 15.4333 18 16 18Z" fill="#30B87A"/>
</g>
</svg>
