<svg width="24" height="24" viewBox="0 0 24 24" fill="none" xmlns="http://www.w3.org/2000/svg">
<path d="M5.15376 16.2053L10.3665 5.12523C10.935 3.91927 11.2205 3.31383 11.6093 3.12432C11.7772 3.04252 11.9616 3 12.1483 3C12.3351 3 12.5194 3.04252 12.6873 3.12432C13.0762 3.31383 13.3617 3.91681 13.9302 5.12523L19.1429 16.2053C19.9969 18.0192 20.4227 18.9273 20.2627 19.3999C20.1936 19.6003 20.074 19.7795 19.9153 19.92C19.7566 20.0606 19.5643 20.1578 19.357 20.2022C18.8697 20.308 18.0206 19.7764 16.3175 18.7132L13.1919 16.759C12.8128 16.5228 12.6258 16.4046 12.4215 16.3579C12.2417 16.3169 12.055 16.3169 11.8751 16.3579C11.6733 16.4046 11.4814 16.5228 11.1048 16.759L7.97915 18.7132C6.27604 19.7764 5.42695 20.308 4.93964 20.2022C4.73236 20.1578 4.54005 20.0606 4.38137 19.92C4.22269 19.7795 4.10302 19.6003 4.03394 19.3999C3.87151 18.9273 4.29975 18.0216 5.15376 16.2053Z" fill="#30B87A"/>
</svg>
