<svg width="24" height="25" viewBox="0 0 24 25" fill="none" xmlns="http://www.w3.org/2000/svg">
<path d="M13 22.0479C12.1818 22.0479 11.4002 21.7067 9.83691 21.0243C8.01233 20.2279 6.61554 19.6182 5.64648 19.0479H2M13 22.0479C13.8182 22.0479 14.5998 21.7067 16.1631 21.0243C20.0544 19.3258 22 18.4765 22 17.0479V6.54785M13 22.0479V11.0479M4 6.54785V9.54785" stroke="#000301" stroke-width="1.5" stroke-linecap="round" stroke-linejoin="round"/>
<path d="M9.32592 9.73923L6.40472 8.3257C4.80157 7.54995 4 7.16208 4 6.54785C4 5.93362 4.80157 5.54575 6.40472 4.77L9.32592 3.35647C11.1288 2.48406 12.0303 2.04785 13 2.04785C13.9697 2.04785 14.8712 2.48405 16.6741 3.35647L19.5953 4.77C21.1984 5.54575 22 5.93362 22 6.54785C22 7.16208 21.1984 7.54995 19.5953 8.3257L16.6741 9.73923C14.8712 10.6117 13.9697 11.0479 13 11.0479C12.0303 11.0479 11.1288 10.6117 9.32592 9.73923Z" stroke="#000301" stroke-width="1.5" stroke-linecap="round" stroke-linejoin="round"/>
<path d="M18.1366 4.06348L7.86719 9.0327" stroke="#000301" stroke-width="1.5" stroke-linecap="round" stroke-linejoin="round"/>
<path d="M2 13.0479H5" stroke="#000301" stroke-width="1.5" stroke-linecap="round" stroke-linejoin="round"/>
<path d="M2 16.0479H5" stroke="#000301" stroke-width="1.5" stroke-linecap="round" stroke-linejoin="round"/>
</svg>
