<svg width="24" height="25" viewBox="0 0 24 25" fill="none" xmlns="http://www.w3.org/2000/svg">
<mask id="mask0_2282_2535" style="mask-type:alpha" maskUnits="userSpaceOnUse" x="0" y="0" width="24" height="25">
<rect y="0.0478516" width="24" height="24" fill="#D9D9D9"/>
</mask>
<g mask="url(#mask0_2282_2535)">
<path d="M14 23.2478V21.2478C15.95 21.2478 17.6042 20.5686 18.9625 19.2103C20.3208 17.852 21 16.1978 21 14.2478H23C23 15.4978 22.7625 16.6686 22.2875 17.7603C21.8125 18.852 21.1708 19.802 20.3625 20.6103C19.5542 21.4186 18.6042 22.0603 17.5125 22.5353C16.4208 23.0103 15.25 23.2478 14 23.2478ZM14 19.2478V17.2478C14.8333 17.2478 15.5417 16.9561 16.125 16.3728C16.7083 15.7895 17 15.0811 17 14.2478H19C19 15.6311 18.5125 16.8103 17.5375 17.7853C16.5625 18.7603 15.3833 19.2478 14 19.2478ZM5.55 22.6228C5.3 22.6228 5.05 22.5728 4.8 22.4728C4.55 22.3728 4.325 22.2311 4.125 22.0478L0.575 18.4978C0.391667 18.2978 0.25 18.0728 0.15 17.8228C0.05 17.5728 0 17.3228 0 17.0728C0 16.8061 0.05 16.552 0.15 16.3103C0.25 16.0686 0.391667 15.8561 0.575 15.6728L3.75 12.4978C4.13333 12.1145 4.60833 11.9186 5.175 11.9103C5.74167 11.902 6.21667 12.0895 6.6 12.4728L7.85 13.7228L8.55 13.0228L7.3 11.7728C6.91667 11.3895 6.725 10.9228 6.725 10.3728C6.725 9.8228 6.91667 9.35614 7.3 8.9728L8.725 7.5478C9.10833 7.16447 9.57917 6.9728 10.1375 6.9728C10.6958 6.9728 11.1667 7.16447 11.55 7.5478L12.8 8.7978L13.5 8.0978L12.25 6.8478C11.8667 6.46447 11.675 5.99364 11.675 5.4353C11.675 4.87697 11.8667 4.40614 12.25 4.0228L15.425 0.847803C15.625 0.647803 15.85 0.497803 16.1 0.397803C16.35 0.297803 16.6 0.247803 16.85 0.247803C17.1 0.247803 17.3458 0.297803 17.5875 0.397803C17.8292 0.497803 18.05 0.647803 18.25 0.847803L21.8 4.3978C22 4.58114 22.1458 4.79364 22.2375 5.0353C22.3292 5.27697 22.375 5.53114 22.375 5.7978C22.375 6.0478 22.3292 6.2978 22.2375 6.5478C22.1458 6.7978 22 7.0228 21.8 7.2228L18.625 10.3978C18.2417 10.7811 17.7708 10.9728 17.2125 10.9728C16.6542 10.9728 16.1833 10.7811 15.8 10.3978L14.55 9.1478L13.85 9.8478L15.1 11.0978C15.4833 11.4811 15.6708 11.952 15.6625 12.5103C15.6542 13.0686 15.4583 13.5395 15.075 13.9228L13.675 15.3228C13.2917 15.7061 12.8208 15.8978 12.2625 15.8978C11.7042 15.8978 11.2333 15.7061 10.85 15.3228L9.6 14.0728L8.9 14.7728L10.15 16.0228C10.5333 16.4061 10.7208 16.8811 10.7125 17.4478C10.7042 18.0145 10.5083 18.4895 10.125 18.8728L6.95 22.0478C6.76667 22.2311 6.55417 22.3728 6.3125 22.4728C6.07083 22.5728 5.81667 22.6228 5.55 22.6228ZM5.55 20.6478L6.6 19.5978L3.05 16.0478L2 17.0978L5.55 20.6478ZM7.675 18.5228L8.725 17.4728L5.175 13.9228L4.125 14.9728L7.675 18.5228ZM17.225 8.9728L18.275 7.9228L14.725 4.3728L13.675 5.4228L17.225 8.9728ZM19.35 6.8478L20.4 5.7978L16.85 2.2478L15.8 3.2978L19.35 6.8478Z" fill="#1C1B1F"/>
</g>
</svg>
