<svg width="20" height="20" viewBox="0 0 20 20" fill="none" xmlns="http://www.w3.org/2000/svg">
<mask id="mask0_2473_17560" style="mask-type:alpha" maskUnits="userSpaceOnUse" x="0" y="0" width="20" height="20">
<rect width="20" height="20" fill="#D9D9D9"/>
</mask>
<g mask="url(#mask0_2473_17560)">
<path d="M1.6665 18.3334V7.37502C1.6665 6.19446 1.97206 5.17016 2.58317 4.3021C3.19428 3.43405 4.05539 2.7778 5.1665 2.33335C5.9165 2.04169 6.71512 1.85766 7.56234 1.78127C8.40956 1.70488 9.22206 1.66669 9.99984 1.66669C10.7776 1.66669 11.5901 1.70488 12.4373 1.78127C13.2846 1.85766 14.0832 2.04169 14.8332 2.33335C15.9443 2.7778 16.8054 3.43405 17.4165 4.3021C18.0276 5.17016 18.3332 6.19446 18.3332 7.37502V18.3334H1.6665ZM7.58317 16.6667L8.83317 15.4167H11.1248L12.3748 16.6667H13.7498V16.25L12.8748 15.375C13.4859 15.2917 13.9929 15.0174 14.3957 14.5521C14.7984 14.0868 14.9998 13.5417 14.9998 12.9167V7.50002C14.9998 6.41669 14.5137 5.72919 13.5415 5.43752C12.5693 5.14585 11.3887 5.00002 9.99984 5.00002C8.73595 5.00002 7.58664 5.14585 6.55192 5.43752C5.5172 5.72919 4.99984 6.41669 4.99984 7.50002V12.9167C4.99984 13.5417 5.20123 14.0868 5.604 14.5521C6.00678 15.0174 6.51373 15.2917 7.12484 15.375L6.24984 16.25V16.6667H7.58317ZM6.24984 10.8334V7.50002H13.7498V10.8334H6.24984ZM12.9165 13.75C12.6804 13.75 12.4825 13.6702 12.3228 13.5104C12.163 13.3507 12.0832 13.1528 12.0832 12.9167C12.0832 12.6806 12.163 12.4827 12.3228 12.3229C12.4825 12.1632 12.6804 12.0834 12.9165 12.0834C13.1526 12.0834 13.3505 12.1632 13.5103 12.3229C13.67 12.4827 13.7498 12.6806 13.7498 12.9167C13.7498 13.1528 13.67 13.3507 13.5103 13.5104C13.3505 13.6702 13.1526 13.75 12.9165 13.75ZM7.08317 13.75C6.84706 13.75 6.64914 13.6702 6.48942 13.5104C6.3297 13.3507 6.24984 13.1528 6.24984 12.9167C6.24984 12.6806 6.3297 12.4827 6.48942 12.3229C6.64914 12.1632 6.84706 12.0834 7.08317 12.0834C7.31928 12.0834 7.5172 12.1632 7.67692 12.3229C7.83664 12.4827 7.9165 12.6806 7.9165 12.9167C7.9165 13.1528 7.83664 13.3507 7.67692 13.5104C7.5172 13.6702 7.31928 13.75 7.08317 13.75Z" fill="#000301"/>
</g>
</svg>
