<svg width="24" height="24" viewBox="0 0 24 24" fill="none" xmlns="http://www.w3.org/2000/svg">
<path d="M19.5 17.5C19.5 18.8807 18.3807 20 17 20C15.6193 20 14.5 18.8807 14.5 17.5C14.5 16.1193 15.6193 15 17 15C18.3807 15 19.5 16.1193 19.5 17.5Z" stroke="#000301" stroke-width="1.5"/>
<path d="M9.5 17.5C9.5 18.8807 8.38071 20 7 20C5.61929 20 4.5 18.8807 4.5 17.5C4.5 16.1193 5.61929 15 7 15C8.38071 15 9.5 16.1193 9.5 17.5Z" stroke="#000301" stroke-width="1.5"/>
<path d="M14.5 17.5001H9.5M15 15.5001V7.00006C15 5.58585 15 4.87874 14.5607 4.4394C14.1213 4.00006 13.4142 4.00006 12 4.00006H5C3.58579 4.00006 2.87868 4.00006 2.43934 4.4394C2 4.87874 2 5.58585 2 7.00006V15.0001C2 15.9347 2 16.402 2.20096 16.7501C2.33261 16.9781 2.52197 17.1675 2.75 17.2991C3.09808 17.5001 3.56538 17.5001 4.5 17.5001M15.5 6.50006H17.3014C18.1311 6.50006 18.5459 6.50006 18.8898 6.69476C19.2336 6.88946 19.4471 7.24516 19.8739 7.95657L21.5725 10.7876C21.7849 11.1416 21.8911 11.3187 21.9456 11.5152C22 11.7117 22 11.9181 22 12.3311V15.0001C22 15.9347 22 16.402 21.799 16.7501C21.6674 16.9781 21.478 17.1675 21.25 17.2991C20.9019 17.5001 20.4346 17.5001 19.5 17.5001" stroke="#000301" stroke-width="1.5" stroke-linecap="round" stroke-linejoin="round"/>
</svg>
