<svg width="20" height="20" viewBox="0 0 20 20" fill="none" xmlns="http://www.w3.org/2000/svg">
<mask id="mask0_2473_17567" style="mask-type:alpha" maskUnits="userSpaceOnUse" x="0" y="0" width="20" height="20">
<rect width="20" height="20" fill="#D9D9D9"/>
</mask>
<g mask="url(#mask0_2473_17567)">
<path d="M8.75 15.8334C8.40278 15.8334 8.10764 15.816 7.86458 15.7813C7.62153 15.7465 7.5 15.625 7.5 15.4167C7.5 15.1806 7.62153 14.9827 7.86458 14.8229C8.10764 14.6632 8.40278 14.5834 8.75 14.5834C9.09722 14.5834 9.39236 14.6632 9.63542 14.8229C9.87847 14.9827 10 15.1806 10 15.4167C10 15.625 9.87847 15.7465 9.63542 15.7813C9.39236 15.816 9.09722 15.8334 8.75 15.8334ZM15.4167 17.5C15.0694 17.5 14.7743 17.4827 14.5312 17.4479C14.2882 17.4132 14.1667 17.2917 14.1667 17.0834C14.1667 16.8472 14.2882 16.6493 14.5312 16.4896C14.7743 16.3299 15.0694 16.25 15.4167 16.25C15.7639 16.25 16.059 16.3299 16.3021 16.4896C16.5451 16.6493 16.6667 16.8472 16.6667 17.0834C16.6667 17.2917 16.5451 17.4132 16.3021 17.4479C16.059 17.4827 15.7639 17.5 15.4167 17.5ZM11.25 17.5C10.9028 17.5 10.6076 17.4827 10.3646 17.4479C10.1215 17.4132 10 17.2917 10 17.0834C10 16.8472 10.1215 16.6493 10.3646 16.4896C10.6076 16.3299 10.9028 16.25 11.25 16.25C11.5972 16.25 11.8924 16.3299 12.1354 16.4896C12.3785 16.6493 12.5 16.8472 12.5 17.0834C12.5 17.2917 12.3785 17.4132 12.1354 17.4479C11.8924 17.4827 11.5972 17.5 11.25 17.5ZM4.58333 17.5C4.23611 17.5 3.94097 17.4827 3.69792 17.4479C3.45486 17.4132 3.33333 17.2917 3.33333 17.0834C3.33333 16.8472 3.45486 16.6493 3.69792 16.4896C3.94097 16.3299 4.23611 16.25 4.58333 16.25C4.93056 16.25 5.22569 16.3299 5.46875 16.4896C5.71181 16.6493 5.83333 16.8472 5.83333 17.0834C5.83333 17.2917 5.71181 17.4132 5.46875 17.4479C5.22569 17.4827 4.93056 17.5 4.58333 17.5ZM7.91667 18.3334C7.56944 18.3334 7.27431 18.316 7.03125 18.2813C6.78819 18.2465 6.66667 18.125 6.66667 17.9167C6.66667 17.6806 6.78819 17.4827 7.03125 17.3229C7.27431 17.1632 7.56944 17.0834 7.91667 17.0834C8.26389 17.0834 8.55903 17.1632 8.80208 17.3229C9.04514 17.4827 9.16667 17.6806 9.16667 17.9167C9.16667 18.125 9.04514 18.2465 8.80208 18.2813C8.55903 18.316 8.26389 18.3334 7.91667 18.3334ZM5 13.3334V14.1667C5 14.4028 4.92014 14.6007 4.76042 14.7604C4.60069 14.9202 4.40278 15 4.16667 15H3.33333C3.09722 15 2.89931 14.9202 2.73958 14.7604C2.57986 14.6007 2.5 14.4028 2.5 14.1667V7.50002L4.25 2.50002C4.33333 2.25002 4.48264 2.04863 4.69792 1.89585C4.91319 1.74308 5.15278 1.66669 5.41667 1.66669H14.5833C14.8472 1.66669 15.0868 1.74308 15.3021 1.89585C15.5174 2.04863 15.6667 2.25002 15.75 2.50002L17.5 7.50002V14.1667C17.5 14.4028 17.4201 14.6007 17.2604 14.7604C17.1007 14.9202 16.9028 15 16.6667 15H15.8333C15.5972 15 15.3993 14.9202 15.2396 14.7604C15.0799 14.6007 15 14.4028 15 14.1667V13.3334H5ZM4.83333 5.83335H15.1667L14.2917 3.33335H5.70833L4.83333 5.83335ZM6.25 10.8334C6.59722 10.8334 6.89236 10.7118 7.13542 10.4688C7.37847 10.2257 7.5 9.93058 7.5 9.58335C7.5 9.23613 7.37847 8.94099 7.13542 8.69794C6.89236 8.45488 6.59722 8.33335 6.25 8.33335C5.90278 8.33335 5.60764 8.45488 5.36458 8.69794C5.12153 8.94099 5 9.23613 5 9.58335C5 9.93058 5.12153 10.2257 5.36458 10.4688C5.60764 10.7118 5.90278 10.8334 6.25 10.8334ZM13.75 10.8334C14.0972 10.8334 14.3924 10.7118 14.6354 10.4688C14.8785 10.2257 15 9.93058 15 9.58335C15 9.23613 14.8785 8.94099 14.6354 8.69794C14.3924 8.45488 14.0972 8.33335 13.75 8.33335C13.4028 8.33335 13.1076 8.45488 12.8646 8.69794C12.6215 8.94099 12.5 9.23613 12.5 9.58335C12.5 9.93058 12.6215 10.2257 12.8646 10.4688C13.1076 10.7118 13.4028 10.8334 13.75 10.8334Z" fill="#000301"/>
</g>
</svg>
