<svg width="42" height="35" viewBox="0 0 42 35" fill="none" xmlns="http://www.w3.org/2000/svg">
<path d="M20.7246 4.70772C21.0249 4.8815 21.4125 4.80025 21.6017 4.50945L22.3257 3.39693C22.558 3.03996 22.4589 2.56103 22.0903 2.34771C21.7217 2.13439 21.2549 2.28608 21.0613 2.6654L20.4577 3.84756C20.2999 4.15657 20.4243 4.53394 20.7246 4.70772Z" fill="#FFD400"/>
<path d="M14.7241 3.10169C15.0712 3.10169 15.3667 2.83691 15.3846 2.49035L15.453 1.16258C15.4749 0.738534 15.1487 0.375 14.7241 0.375C14.2995 0.375 13.9734 0.738535 13.9952 1.16258L14.0637 2.49035C14.0816 2.83691 14.3771 3.10169 14.7241 3.10169Z" fill="#FFD400"/>
<path d="M8.72371 4.70772C9.02401 4.53394 9.14833 4.15657 8.99056 3.84756L8.38701 2.6654C8.19335 2.28608 7.72662 2.13439 7.35799 2.34771C6.98937 2.56103 6.8903 3.03997 7.12259 3.39694L7.84653 4.50945C8.03577 4.80026 8.42341 4.8815 8.72371 4.70772Z" fill="#FFD400"/>
<path d="M4.33272 9.09871C4.5065 8.79841 4.42525 8.41077 4.13445 8.22154L3.02193 7.4976C2.66496 7.26531 2.18603 7.36437 1.97271 7.73299C1.75939 8.10162 1.91108 8.56836 2.2904 8.76202L3.47256 9.36556C3.78157 9.52333 4.15894 9.39901 4.33272 9.09871Z" fill="#FFD400"/>
<path d="M2.11535 14.4387C2.46191 14.4566 2.72669 14.7521 2.72669 15.0991C2.72669 15.4462 2.46191 15.7417 2.11535 15.7596L0.787583 15.828C0.363535 15.8499 0 15.5238 0 15.0991C0 14.6745 0.363534 14.3484 0.787582 14.3702L2.11535 14.4387Z" fill="#FFD400"/>
<path d="M21.5612 7.68032C19.7636 6.02282 17.3621 5.01038 14.7241 5.01038C9.15228 5.01038 4.63538 9.52728 4.63538 15.0991C4.63538 15.5063 4.65951 15.9079 4.7064 16.3024C6.33692 15.2362 8.28573 14.6164 10.3793 14.6164C11.2283 14.6164 12.0548 14.7186 12.8464 14.9116C14.5988 11.4318 17.749 8.77486 21.5612 7.68032Z" fill="#FFD400"/>
<path d="M10.3794 34.1694C5.31366 34.1694 1.20703 30.0628 1.20703 24.997C1.20703 19.9312 5.31366 15.8246 10.3794 15.8246C11.4779 15.8246 12.5312 16.0176 13.5073 16.3717C15.4332 11.6609 20.0618 8.3418 25.4657 8.3418C32.5977 8.3418 38.3794 14.1235 38.3794 21.2556C38.3794 21.5698 38.3682 21.8813 38.3462 22.1899C40.5029 23.183 42.0001 25.3634 42.0001 27.8935C42.0001 31.3596 39.1903 34.1694 35.7243 34.1694H10.3794Z" fill="#EEF0F6"/>
</svg>
