<svg width="20" height="20" viewBox="0 0 20 20" fill="none" xmlns="http://www.w3.org/2000/svg">
<mask id="mask0_2473_17867" style="mask-type:alpha" maskUnits="userSpaceOnUse" x="0" y="0" width="20" height="20">
<rect width="20" height="20" fill="#D9D9D9"/>
</mask>
<g mask="url(#mask0_2473_17867)">
<path d="M1.6665 18.3333C1.6665 16.7916 1.87137 15.4757 2.28109 14.3854C2.69081 13.2951 3.21511 12.3888 3.854 11.6666C4.49289 10.9444 5.20817 10.3854 5.99984 9.98954C6.7915 9.59371 7.56928 9.3194 8.33317 9.16663V6.66663C6.43039 6.43051 4.84359 5.84371 3.57275 4.90621C2.30192 3.96871 1.6665 2.88885 1.6665 1.66663H18.3332C18.3332 2.88885 17.6978 3.96871 16.4269 4.90621C15.1561 5.84371 13.5693 6.43051 11.6665 6.66663V9.16663C12.4304 9.3194 13.2082 9.59371 13.9998 9.98954C14.7915 10.3854 15.5068 10.9444 16.1457 11.6666C16.7846 12.3888 17.3089 13.2951 17.7186 14.3854C18.1283 15.4757 18.3332 16.7916 18.3332 18.3333H13.3332V16.6666H16.5623C16.3123 14.5555 15.5241 13.0277 14.1978 12.0833C12.8714 11.1388 11.4721 10.6666 9.99984 10.6666C8.52762 10.6666 7.12831 11.1388 5.80192 12.0833C4.47553 13.0277 3.68734 14.5555 3.43734 16.6666H6.6665V18.3333H1.6665ZM9.99984 18.3333C9.5415 18.3333 9.14914 18.1701 8.82275 17.8437C8.49637 17.5173 8.33317 17.125 8.33317 16.6666C8.33317 16.4305 8.37831 16.2152 8.46859 16.0208C8.55887 15.8263 8.68039 15.6527 8.83317 15.5C9.1665 15.1666 9.729 14.8159 10.5207 14.4479C11.3123 14.0798 12.2498 13.7083 13.3332 13.3333C12.9443 14.4166 12.5693 15.3541 12.2082 16.1458C11.8471 16.9375 11.4998 17.5 11.1665 17.8333C11.0137 17.9861 10.8401 18.1076 10.6457 18.1979C10.4512 18.2882 10.2359 18.3333 9.99984 18.3333Z" fill="#000301"/>
</g>
</svg>
